<?xml version="1.0" standalone="no"?>
<!DOCTYPE svg PUBLIC "-//W3C//DTD SVG 20010904//EN"
 "http://www.w3.org/TR/2001/REC-SVG-20010904/DTD/svg10.dtd">
<svg version="1.0" xmlns="http://www.w3.org/2000/svg"
 width="740.000000pt" height="740.000000pt" viewBox="0 0 740.000000 740.000000"
 preserveAspectRatio="xMidYMid meet">

<g transform="translate(0.000000,740.000000) scale(0.100000,-0.100000)"
fill="#000000" stroke="none">
<path d="M485 5426 c-28 -11 -89 -38 -125 -56 -14 -6 -48 -64 -50 -83 -1 -21
80 -39 189 -42 64 -2 129 -8 144 -14 16 -6 56 -11 89 -11 83 0 268 -28 294
-45 11 -7 68 -23 125 -36 57 -12 106 -25 109 -28 8 -11 85 -31 117 -31 17 0
44 -7 61 -15 17 -9 57 -21 89 -26 32 -6 65 -15 73 -20 8 -5 26 -14 40 -20 120
-54 171 -84 209 -123 38 -38 42 -47 31 -61 -7 -8 -9 -15 -6 -15 4 0 -4 -15
-18 -33 -15 -19 -26 -38 -26 -44 0 -5 -11 -20 -25 -33 -14 -13 -25 -31 -25
-41 0 -10 -9 -21 -20 -24 -11 -4 -27 -21 -35 -38 -7 -18 -20 -43 -28 -57 -29
-52 -71 -187 -72 -230 0 -26 -7 -55 -17 -70 -10 -13 -18 -38 -18 -55 0 -16 -9
-44 -19 -62 -14 -21 -16 -33 -8 -36 7 -2 4 -14 -10 -33 -27 -37 -41 -104 -23
-104 9 0 8 -5 -3 -18 -17 -18 -47 -84 -47 -102 0 -5 9 -10 20 -10 18 0 18 -2
-5 -36 -17 -24 -25 -51 -25 -78 0 -78 -19 -154 -58 -237 -22 -46 -43 -98 -47
-115 -3 -18 -22 -50 -41 -73 -20 -22 -33 -41 -30 -41 4 0 0 -13 -9 -30 -8 -16
-15 -39 -15 -51 0 -12 -12 -43 -27 -68 -29 -49 -43 -119 -48 -241 -1 -41 -8
-95 -14 -120 -7 -25 -14 -58 -16 -75 -9 -78 -44 -254 -53 -271 -6 -11 -24 -36
-41 -58 -44 -55 -53 -96 -35 -156 17 -56 51 -86 87 -76 12 3 59 -2 104 -10 79
-16 84 -16 122 3 24 12 45 17 53 12 7 -5 53 -9 101 -9 74 0 97 4 142 25 64 31
83 69 66 131 -10 36 -58 114 -70 114 -4 0 -14 13 -24 29 -21 36 -22 104 -2
182 9 32 20 93 25 135 6 49 19 93 37 126 30 54 252 288 274 288 8 0 20 9 27
20 7 11 19 20 27 20 19 0 84 38 120 71 17 15 62 48 102 73 55 35 81 46 112 46
23 0 41 -2 41 -4 0 -2 -13 -34 -30 -71 -32 -71 -37 -104 -20 -136 6 -11 20
-54 31 -96 10 -43 24 -82 29 -87 6 -6 10 -24 10 -40 0 -17 7 -49 15 -71 8 -22
14 -53 15 -70 0 -38 49 -136 95 -193 24 -30 35 -54 35 -76 0 -18 7 -41 15 -52
8 -10 15 -31 15 -45 0 -55 113 -162 153 -146 7 3 38 -1 68 -9 68 -18 191 -9
222 16 17 14 28 15 56 8 24 -7 47 -6 72 1 36 11 38 14 44 65 6 43 3 61 -13 92
-29 56 -100 121 -142 129 -78 16 -97 30 -129 97 -36 76 -52 142 -54 223 -1 52
3 65 30 103 29 39 32 41 38 22 4 -12 9 -20 11 -17 2 2 25 -16 51 -40 26 -23
56 -43 65 -43 10 0 18 -4 18 -10 0 -5 6 -10 14 -10 8 0 16 -7 20 -15 3 -8 23
-22 46 -31 22 -9 40 -20 40 -25 0 -5 9 -9 21 -9 11 0 34 -13 52 -30 17 -16 45
-35 62 -41 72 -27 85 -35 85 -45 0 -14 114 -66 231 -105 59 -20 131 -34 225
-44 75 -7 141 -18 146 -23 5 -5 28 -6 51 -1 23 4 66 3 95 -2 29 -6 62 -7 72
-4 13 4 22 1 26 -9 5 -12 10 -13 26 -5 16 9 20 7 25 -11 5 -18 12 -21 36 -17
22 3 31 0 34 -14 3 -10 11 -15 19 -12 9 3 14 -2 14 -14 0 -14 10 -22 38 -29
30 -7 36 -13 34 -30 -2 -12 4 -24 13 -27 8 -4 15 -17 15 -30 0 -42 60 -96 130
-118 34 -10 73 -19 88 -19 14 0 22 -3 18 -7 -4 -4 10 -12 31 -18 21 -6 38 -17
38 -25 0 -9 16 -17 44 -22 25 -4 47 -12 51 -18 4 -7 23 -8 51 -4 40 7 43 6 30
-9 -12 -15 -11 -17 7 -17 11 0 22 -5 24 -10 2 -7 19 -7 50 -2 33 7 48 6 51 -2
3 -7 46 -18 96 -25 50 -7 98 -19 105 -27 17 -17 56 -18 166 -3 71 10 94 9 157
-6 60 -14 101 -17 201 -12 70 3 128 9 129 14 2 5 50 7 107 5 88 -4 108 -1 132
14 15 11 29 18 31 17 2 -2 4 -3 6 -2 1 0 11 2 21 4 11 2 28 13 39 24 19 18 21
19 33 4 9 -14 41 -18 175 -25 141 -8 169 -7 206 7 39 15 45 15 65 1 27 -19
111 -21 183 -4 43 10 54 18 79 55 40 62 34 124 -18 188 -48 58 -101 85 -164
85 -44 0 -99 14 -157 39 -22 9 -147 41 -180 45 -77 10 -116 22 -160 46 -32 18
-76 32 -122 38 -42 6 -88 20 -108 32 -47 29 -217 219 -261 292 -25 40 -33 64
-29 79 4 13 12 18 22 15 8 -3 24 1 36 9 29 20 38 19 110 -9 47 -19 89 -26 172
-31 61 -3 119 -9 129 -12 42 -12 202 -9 241 5 22 8 61 16 86 17 28 1 70 13
104 30 63 31 105 84 129 166 8 26 30 67 49 92 45 59 53 96 32 137 -9 18 -22
51 -29 74 -13 41 -90 151 -151 216 -36 37 -74 112 -75 145 0 11 10 38 22 60
40 73 21 203 -53 363 -37 80 -70 125 -175 239 -75 82 -99 101 -212 164 -70 40
-148 82 -173 94 -59 27 -115 91 -230 262 -148 219 -286 340 -410 359 -41 6
-43 5 -24 -10 19 -15 19 -15 1 -16 -11 0 -48 -19 -83 -41 -46 -30 -61 -45 -53
-54 6 -8 3 -24 -10 -50 -12 -24 -20 -59 -20 -91 0 -30 -5 -54 -11 -56 -9 -3
-9 -10 0 -26 6 -12 8 -22 4 -22 -12 0 -7 -66 11 -148 9 -40 16 -78 16 -83 0
-5 -24 4 -52 20 -72 40 -150 61 -222 60 -51 0 -57 -2 -36 -10 l25 -10 -22 -12
c-34 -19 -95 -95 -87 -109 4 -6 6 -37 5 -69 -1 -32 2 -67 8 -78 8 -14 8 -22 1
-26 -8 -5 -7 -11 1 -22 12 -14 24 -83 15 -83 -3 0 -26 13 -51 29 -61 38 -183
78 -276 90 -123 16 -163 28 -262 79 -52 27 -112 55 -133 62 -22 7 -43 16 -49
21 -5 5 -16 9 -24 9 -8 0 -23 8 -33 17 -10 9 -34 22 -53 29 -19 6 -92 46 -163
88 -81 48 -164 88 -228 110 -54 19 -124 45 -154 59 -30 13 -102 35 -160 47
-58 12 -125 30 -150 40 -146 57 -378 93 -615 94 -132 1 -171 -2 -223 -18 -55
-17 -68 -18 -95 -7 -123 49 -279 102 -331 112 -33 7 -86 25 -116 40 -147 73
-767 160 -1125 158 -128 -1 -211 -6 -230 -13z m5024 -2906 c99 -48 126 -74 35
-34 -143 63 -280 142 -267 154 4 5 19 10 33 12 19 3 34 -6 66 -42 29 -31 70
-59 133 -90z"/>
</g>
</svg>
